#!OML:ASF H:\Terrain\Patient Classification 1\Terrain2\Thursday\justin.ASF
:FULLY-SPECIFIED
:DEGREES
3527
root -14.0117 16.9072 -10.4499 819.847 -257.429 -259.252
lowerback 9.13106 -0.473206 8.12694
upperback 3.44432 0.506573 5.8662
thorax -1.52442 0.393145 1.49041
lowerneck -13.8775 -1.85675 -6.72557
upperneck 37.2035 -0.0835255 2.34268
head 15.4207 -0.179248 2.31219
rclavicle 8.94531e-016 -9.14409e-015
rhumerus -31.8836 -11.017 -78.6237
rradius 25.8351
rwrist -9.29795
rhand -20.7125 12.1728
rfingers 7.12502
rthumb 5.65195 -17.7318
lclavicle 8.94531e-016 -9.14409e-015
lhumerus -35.3582 1.88121 84.0883
lradius 39.9561
lwrist 6.45407
lhand -21.374 19.9672
lfingers 7.12502
lthumb 5.01322 49.8879
rfemur -9.18448 -7.58581 35.3662
rtibia 32.7216
rfoot -21.57 4.39631
rtoes 21.4288
lfemur -31.4859 10.8859 -3.46826
ltibia 72.4263
lfoot -10.3796 -8.99318
ltoes -3.31727
3528
root -13.9943 16.9088 -10.4443 819.918 -256.853 -258.987
lowerback 9.44159 -0.499687 8.79223
upperback 3.50495 0.586505 5.98415
thorax -1.62284 0.441482 1.23973
lowerneck -14.3594 -1.9979 -8.06477
upperneck 37.6219 -0.257438 3.52314
head 15.7681 -0.286581 3.0503
rclavicle -1.8487e-014 -6.75868e-014
rhumerus -31.9042 -10.7227 -78.6756
rradius 25.927
rwrist -9.40857
rhand -20.6658 12.0742
rfingers 7.12502
rthumb 5.69699 -17.8293
lclavicle -1.8487e-014 -6.75868e-014
lhumerus -35.5298 1.3435 84.3783
lradius 40.2919
lwrist 7.0216
lhand -22.2652 20.3922
lfingers 7.12502
lthumb 4.15268 50.3315
rfemur -8.61384 -7.60888 35.9237
rtibia 32.0867
rfoot -21.2363 4.4571
rtoes 21.513
lfemur -33.1418 11.2929 -2.80609
ltibia 75.1535
lfoot -10.9423 -8.27307
ltoes -6.88827
3529
root -13.9728 16.9202 -10.4373 820.423 -256.433 -258.33
lowerback 9.67488 -0.455124 9.17093
upperback 3.59815 0.730284 6.21334
thorax -1.64562 0.523699 1.25704
lowerneck -14.0924 -1.91481 -7.42362
upperneck 37.2348 -0.155246 2.90651
head 15.4971 -0.233722 2.66819
rclavicle 6.36111e-015 5.28767e-014
rhumerus -31.8021 -10.8856 -78.4161
rradius 25.9108
rwrist -9.09102
rhand -20.8691 12.0168
rfingers 7.12502
rthumb 5.50069 -17.8918
lclavicle 6.36111e-015 5.28767e-014
lhumerus -35.5394 1.19598 84.8657
lradius 40.3672
lwrist 6.77664
lhand -22.7913 20.3355
lfingers 7.12502
lthumb 3.6446 50.2841
rfemur -8.04569 -7.62289 36.2997
rtibia 31.4344
rfoot -21.0114 4.5701
rtoes 22.0154
lfemur -34.8141 11.6297 -2.33536
ltibia 77.7736
lfoot -11.499 -7.73525
ltoes -8.28908
3530
root -13.9471 16.9445 -10.429 821.373 -256.677 -257.26
lowerback 9.81669 -0.449409 8.74474
upperback 3.66538 0.715899 6.30269
thorax -1.66207 0.515792 1.58678
lowerneck -13.8319 -1.84036 -7.06858
upperneck 36.9397 -0.0142371 2.41435
head 15.2793 -0.18971 2.40524
rclavicle -4.17448e-015 -5.32743e-014
rhumerus -31.6345 -10.4601 -78.3481
rradius 25.8661
rwrist -9.35712
rhand -21.2713 11.7278
rfingers 7.12502
rthumb 5.11242 -18.1905
lclavicle -4.17448e-015 -5.32743e-014
lhumerus -35.6046 1.68121 85.1457
lradius 40.3103
lwrist 6.22687
lhand -22.7046 20.1378
lfingers 7.12502
lthumb 3.72834 50.0849
rfemur -7.48494 -7.55384 35.9789
rtibia 30.7706
rfoot -20.7126 4.53446
rtoes 22.504
lfemur -36.374 11.7445 -2.66829
ltibia 80.1928
lfoot -12.1131 -7.11382
ltoes -6.71079
3531
root -13.9194 16.9642 -10.424 822.33 -256.91 -256.173
lowerback 9.93366 -0.542215 8.40004
upperback 3.76484 0.563091 6.26583
thorax -1.63146 0.439698 1.7552
lowerneck -13.7681 -1.71858 -6.9845
upperneck 36.7382 0.14559 2.31807
head 15.1546 -0.126246 2.36741
rclavicle -4.07509e-015 -7.95139e-015
rhumerus -31.3426 -9.74517 -78.602
rradius 25.7543
rwrist -9.8327
rhand -21.9673 11.7216
rfingers 7.12502
rthumb 4.44036 -18.2119
lclavicle -4.07509e-015 -7.95139e-015
lhumerus -35.6975 1.97611 85.2268
lradius 40.3231
lwrist 6.29374
lhand -21.8146 20.3148
lfingers 7.12502
lthumb 4.5878 50.2452
rfemur -6.82516 -7.10475 35.6858
rtibia 29.9904
rfoot -20.5554 4.28897
rtoes 22.8195
lfemur -37.8541 11.9908 -3.0842
ltibia 82.4261
lfoot -12.6653 -6.33421
ltoes -5.22438
3532
root -13.8924 16.9838 -10.4222 823.141 -256.803 -255.316
lowerback 9.97361 -0.482043 8.64139
upperback 3.90629 0.66062 6.21905
thorax -1.49767 0.498074 1.56254
lowerneck -13.8523 -1.76175 -7.14814
upperneck 36.5144 0.0262472 2.53218
head 15.0726 -0.173801 2.45941
rclavicle -7.55382e-015 -3.18055e-015
rhumerus -31.0502 -10.0421 -78.6021
rradius 25.6608
rwrist -9.71337
rhand -22.1823 11.8529
rfingers 7.12502
rthumb 4.2327 -18.0847
lclavicle -7.55382e-015 -3.18055e-015
lhumerus -35.6035 1.53709 85.5804
lradius 40.3345
lwrist 6.51788
lhand -21.432 20.4217
lfingers 7.12502
lthumb 4.9572 50.3437
rfemur -6.27574 -6.38843 35.8136
rtibia 29.2567
rfoot -20.4515 3.94849
rtoes 22.6061
lfemur -39.4851 12.3045 -3.12554
ltibia 84.5824
lfoot -12.9979 -6.06983
ltoes -2.32006
3533
root -13.8628 17.0275 -10.4157 823.639 -256.491 -254.859
lowerback 10.0077 -0.239766 9.15205
upperback 3.94924 1.03124 6.14846
thorax -1.44567 0.689867 1.16677
lowerneck -13.7145 -1.92457 -6.59066
upperneck 36.3023 -0.372472 2.42065
head 14.9565 -0.278889 2.24106
rclavicle 3.97569e-015 -1.55052e-014
rhumerus -31.0643 -10.9978 -78.5252
rradius 25.7008
rwrist -9.5355
rhand -21.7956 11.9352
rfingers 7.12502
rthumb 4.60612 -17.9947
lclavicle 3.97569e-015 -1.55052e-014
lhumerus -35.4979 0.675123 85.9328
lradius 40.29
lwrist 6.86364
lhand -21.5512 20.1911
lfingers 7.12502
lthumb 4.84217 50.1158
rfemur -5.85511 -6.00086 36.2412
rtibia 28.5602
rfoot -20.2069 3.50606
rtoes 21.8783
lfemur -41.2086 12.5623 -2.83881
ltibia 86.5494
lfoot -13.5118 -6.37238
ltoes 0.75385
